<svg width="100" height="100" viewBox="0 0 100 100" fill="none" xmlns="http://www.w3.org/2000/svg">
<path d="M22.5442 23.9036C22.5234 24.0192 22.5012 24.1251 22.2346 24.1481C21.9827 24.1503 21.4257 24.1066 20.6116 23.5184C20.1657 23.2014 19.6027 22.5221 19.3664 21.8488C19.1116 21.1777 19.1612 20.5977 19.2723 20.5895C19.3946 20.5725 19.5612 21.0725 19.9079 21.5762C20.2427 22.0903 20.7634 22.5732 21.1242 22.831C21.7834 23.3073 22.1901 23.4184 22.3746 23.5569C22.5679 23.6777 22.5642 23.7873 22.5442 23.9036Z" fill="white"/>
<path d="M78.9475 23.0073C78.8105 23.2006 78.6846 23.3473 77.9868 22.8517C77.6046 22.5806 76.8949 21.8414 77.032 21.648C77.169 21.4555 78.1009 21.8814 78.4831 22.1517C79.1809 22.648 79.0846 22.8147 78.9475 23.008V23.0073Z" fill="white"/>
<path d="M87.7213 8.32592C88.1413 8.54592 89.4776 6.81481 89.9421 5.92518C90.7895 4.30222 90.4673 4.09036 90.0473 3.8711C89.6273 3.65184 89.2695 3.50814 88.4221 5.13184C87.9576 6.02073 87.3013 8.1074 87.7213 8.32666V8.32592ZM95.0798 9.43333C95.251 9.2311 95.2169 9.01851 95.1628 8.78814C95.1095 8.55777 95.0561 8.34962 94.7732 8.26073C94.4954 8.18222 93.9598 8.19925 93.0591 8.62814C92.5665 8.86073 91.8747 9.39407 91.4361 9.96444C90.988 10.5311 90.7887 11.0926 90.9643 11.2459C91.1436 11.4037 91.6398 11.1607 92.205 10.9022L93.8095 10.1704C94.5354 9.82444 94.9117 9.64666 95.0798 9.43333ZM97.7828 14.5978C97.6295 14.1504 97.471 13.7985 95.8569 14.3526C94.9724 14.6563 93.1984 15.6711 93.3524 16.1185C93.5058 16.5659 95.5287 16.2785 96.4132 15.9748C98.028 15.4207 97.9361 15.0459 97.7828 14.5978ZM79.2243 8.69999C73.7132 8.57925 69.0798 11.8948 67.325 16.937C66.2717 19.9459 66.1243 23.3652 66.5569 26.7348C67.0065 30.1237 68.0317 33.4541 69.2754 36.6504C70.5287 39.8474 72.1161 42.88 73.8406 45.6222C76.2073 49.3659 77.9117 49.0607 79.9858 46.7904C82.2732 44.1681 85.9576 37.7059 87.5235 34.2985C88.0147 33.2244 88.2413 32.6096 88.1902 32.5852C88.1347 32.5585 87.8043 33.1215 87.2169 34.1393C85.4635 37.1644 81.5873 43.5563 79.2243 46.103C77.7428 47.6592 76.8169 48.26 74.8739 44.9881C73.248 42.2563 71.7673 39.2755 70.6028 36.14C69.4473 33.0074 68.5043 29.743 68.125 26.5422C67.7532 23.34 67.9495 20.1659 68.905 17.5081C70.5036 13.0837 74.4858 10.3141 79.1895 10.4044C85.3435 10.5281 89.3065 15.423 90.0695 21.0904C90.7791 26.0333 88.7132 29.7511 88.1769 31.8385C88.0036 32.4422 88.0828 32.5333 88.1902 32.5852C88.2961 32.6363 88.4191 32.6459 88.7806 32.1244C89.125 31.5941 89.7769 30.5637 90.6154 28.3518C91.5347 25.7948 91.8813 23.5696 91.5636 20.8926C90.8524 14.4496 86.2532 8.86147 79.2243 8.69999Z" fill="black"/>
<path d="M83.6368 21.437C83.5183 21.4451 83.4072 21.4711 83.3079 21.6474C83.2116 21.8214 83.1271 22.1511 82.9101 22.7177C82.6857 23.2622 82.2857 24.1348 81.242 24.8689C79.7664 25.9059 77.839 25.6074 76.5323 24.4859C75.336 23.4711 74.9834 21.8 75.2983 20.4666C75.6264 18.8696 76.8931 17.62 78.9768 17.5874C80.4234 17.5911 81.8523 18.3414 82.7509 19.654C83.4175 20.6444 83.4953 21.4555 83.6368 21.437C83.8553 21.4622 83.9183 19.08 81.8279 17.4622C81.0198 16.842 80.0515 16.4652 79.0368 16.3763C76.3383 16.1866 74.3397 17.8244 73.7649 20.0859C73.2279 22.0111 73.7094 24.3511 75.4197 25.7896C77.4094 27.4807 80.2323 27.6829 82.1768 26.1422C83.2583 25.3118 83.9197 24.1126 84.0834 23.0237C84.1938 22.2385 84.082 21.8289 83.9753 21.6311C83.8679 21.4318 83.7546 21.4296 83.6368 21.437ZM35.4279 32.4059C35.2553 32.0496 35.1405 32.0526 35.0257 32.08C34.9101 32.1066 34.8064 32.1637 34.7723 32.5318C34.6612 33.797 34.816 35.157 33.9701 37.1511C32.8871 39.714 30.7701 41.6866 27.9086 42.2007C26.1249 42.4933 23.8805 42.234 21.8197 40.9918C18.876 39.2385 17.5649 35.7777 17.799 32.8348C17.8486 28.5533 21.8509 24.8585 27.2842 25.5622C33.7183 26.6066 34.716 32.1948 35.0257 32.08C35.0775 32.0681 35.0427 31.6777 34.8649 30.9866C33.9879 28.0074 31.2797 25.2874 27.476 24.4889C21.4079 23.3918 16.4412 27.5177 16.2242 32.7111C15.8709 36.2518 17.3723 40.3481 20.9368 42.4614C23.396 43.9355 26.0257 44.2326 28.1983 43.8555C31.6212 43.2081 34.1894 40.78 35.2975 37.6607C36.0753 35.4703 35.8879 33.334 35.4279 32.4059ZM7.9627 65.1333C7.02196 62.9651 6.43011 61.1126 6.18937 61.1637C5.96715 61.2081 6.14345 63.1837 6.81974 65.5392C8.26048 70.5681 11.0605 74.8629 13.3397 76.8681C14.0316 77.4311 14.2116 77.3111 14.3886 77.1533C14.5657 76.9963 14.6997 76.8244 14.2642 76.0829C13.6642 74.9629 10.396 70.9059 7.9627 65.1333ZM4.35752 69.854C3.80863 69.094 3.34419 68.4503 3.11974 68.534C2.90048 68.6155 2.97085 69.4326 3.26937 70.3896C3.72715 71.8948 5.0227 74.2074 6.23233 74.7896C6.58567 74.9496 6.75085 74.8118 6.92419 74.6511C7.52419 74.0985 7.17382 73.7733 4.35752 69.854Z" fill="black"/>
<path d="M46.4392 79.2347C46.9392 76.5251 45.1622 74.5132 45.0222 72.5154C44.7926 69.7362 47.7481 67.728 50.8296 67.3317C54.5889 66.8858 58.2807 67.9784 61.1015 66.5495C61.86 66.1562 62.5311 65.5251 62.9103 64.7836C63.9081 62.8836 63.3163 60.588 63.2289 59.1317C63.1474 58.1695 63.2429 57.3347 63.5111 56.7569C63.4318 56.7888 64.1585 56.0065 67.9177 55.3939C71.2348 54.8606 71.6215 55.2947 71.8903 54.9991C71.9459 54.9399 72.0037 54.8614 71.857 54.6791C70.837 53.4806 64.3311 54.1725 62.6274 55.4776C62.4703 55.5739 62.2585 55.8169 62.1289 56.0458C61.6377 57.028 61.5466 58.1369 61.6103 59.2325C61.7126 61.2599 62.4503 63.9702 60.317 65.0369C58.1585 66.1391 54.397 65.1836 50.6148 65.6658C46.6948 66.2117 43.1874 68.8888 43.52 72.651C43.6622 73.9791 44.2318 75.0688 44.6326 76.0836C45.0252 77.0717 45.2955 77.9925 45.1303 79.0421C44.8118 81.7954 42.0911 84.2169 39.3777 84.9362C37.1703 85.5673 35.0355 85.5162 32.8992 85.3954C34.8111 84.1991 36.9074 80.1836 37.8992 78.1651C40.0133 73.8517 44.2 63.6206 46.56 55.6591C46.8829 54.5591 47.1185 53.7006 47.2652 53.1154C47.4103 52.5288 47.4733 52.2176 47.4452 52.2088C47.417 52.1999 47.297 52.4954 47.097 53.0643L46.2311 55.5532C42.897 65.0702 38.737 74.4206 37.0437 77.7354C34.7252 82.2613 33.2274 83.7273 33.1652 83.8132C32.9103 84.0162 32.6703 84.2554 32.4007 84.4273C29.9689 85.9665 27.44 83.4473 25.4955 81.2562C19.1948 73.9584 13.7918 65.8606 9.66442 56.9747C5.76293 48.6221 2.55479 39.148 4.25256 30.1206C6.06516 20.1339 12.8555 13.9236 22.3289 12.7539C30.0622 11.7858 38.2844 14.3288 43.3852 20.2265C46.5963 24.0488 48.5815 29.8695 49.2207 34.7688C49.7615 39.0976 48.9466 43.9339 48.0607 48.1488L47.4844 50.8673C47.2511 52.0569 47.3296 52.1754 47.4452 52.2088C47.557 52.2421 47.694 52.1895 48.1259 51.0488C49.7718 46.7036 51.1844 39.7191 50.6333 34.6073C50.054 29.4414 48.0274 23.3021 44.617 19.1895C39.1577 12.771 30.3474 10.0443 22.1163 11.0614C11.9903 12.2999 4.51849 19.0006 2.59923 29.8243C0.895528 39.3132 4.1696 48.9532 8.29997 57.6184C12.434 66.3369 17.9163 74.5265 24.5874 82.0606C26.6155 84.2784 29.2066 86.7865 32.0592 85.7917C34.5555 86.2451 37.1496 86.4391 39.62 85.8636C43.0459 85.1258 45.9755 82.2865 46.4392 79.2347ZM86.8503 60.4088C86.3585 60.1939 85.3955 60.0799 83.7274 60.4532C82.8955 60.6458 81.8822 60.9584 80.6948 61.5199C79.5163 62.0873 78.1363 62.8917 76.7733 64.2502C75.934 65.1288 75.2896 65.9102 74.9926 67.0176C74.6852 68.2339 74.8266 69.4754 74.9511 70.6658C75.2666 73.6228 74.8163 75.2517 71.64 75.5932C70.0837 75.751 68.0874 75.5413 65.9103 75.5806C59.0014 75.7488 56.2177 79.7436 56.834 83.1295C56.9577 83.8036 57.1815 84.4206 57.414 84.991C58.2866 87.105 59.0733 88.7391 57.6785 91.1569C56.6407 92.9821 54.8629 94.271 53.1029 94.8473C50.2385 95.811 47.3681 95.5302 44.5726 95.348C43.7407 95.2873 43.2755 95.2754 43.2666 95.3347C43.2585 95.3925 43.7059 95.5191 44.5259 95.6902C47.4489 96.2784 50.5333 96.5747 53.3874 95.7628C55.3792 95.2021 57.4244 93.8725 58.7244 91.7702C60.4022 89.0732 59.7081 87.0599 58.7377 84.4732C58.5303 83.9273 58.3615 83.3991 58.28 82.8865C57.7148 79.1673 61.8992 77.2902 65.9355 77.2599C68.0044 77.2376 69.9429 77.4754 71.8185 77.2984C74.8429 76.9665 76.6074 75.4813 76.7281 72.4821C76.7555 71.7613 76.6911 71.0947 76.6207 70.4828C76.2615 67.5051 76.4511 66.9599 77.9111 65.3465C79.06 64.1421 80.2829 63.3584 81.3355 62.7888C82.2052 62.3228 83.1132 61.9322 84.0496 61.6214C85.5407 61.1362 86.337 61.0821 86.7 61.0591C87.0452 61.0495 87.1052 61.0243 87.2022 60.9302C87.2415 60.8858 87.2785 60.8414 87.2466 60.7488C87.2163 60.6525 87.097 60.5206 86.8503 60.4088Z" fill="black"/>
<path d="M27.2401 38.0223C27.2786 38.1297 27.3134 38.2475 26.9549 38.4238C26.7749 38.506 26.4897 38.6016 26.0534 38.6201C25.4562 38.6426 24.8626 38.5174 24.3253 38.2557C23.859 38.0291 23.4496 37.7005 23.1275 37.2942C22.7716 36.8428 22.5283 36.3131 22.4179 35.749C22.1972 34.6646 22.5897 33.8372 22.6897 33.8853C22.8083 33.9134 22.6712 34.7209 23.0031 35.5897C23.1564 36.0216 23.4149 36.452 23.7283 36.7809C24.0372 37.1142 24.4001 37.3386 24.6972 37.4831C25.2453 37.7438 25.712 37.8023 26.0579 37.8297C26.406 37.8542 26.646 37.8342 26.812 37.8342C27.1453 37.8268 27.2001 37.9068 27.2401 38.0223Z" fill="white"/>
</svg>
