<svg width="100" height="100" viewBox="0 0 100 100" fill="none" xmlns="http://www.w3.org/2000/svg">
<path d="M35.3039 6.76674C33.4981 7.10974 31.9451 7.64567 30.3016 8.67555C17.9052 16.444 24.9588 35.2685 39.2275 33.2082C45.2657 33.2519 50.5907 29.3472 52.5175 24.2805C56.025 15.0708 47.0288 3.09476 35.3039 6.76674ZM50.5971 23.5501C47.6434 31.3158 37.108 33.7347 31.0826 27.9861C25.8279 22.9799 26.8347 11.1838 36.324 8.58057C46.1606 5.88561 53.4578 16.037 50.5971 23.5501Z" fill="black"/>
<path d="M7.88143 68.8567C7.85878 68.8553 7.83804 68.8547 7.81538 68.8533C8.30797 69.6901 9.42891 70.5953 9.99517 71.4653C28.3999 72.0297 38.5037 72.1499 56.4368 71.4645C55.5959 75.3271 55.8704 79.445 57.2813 83.1469C59.0408 87.7641 64.62 92.8443 70.4701 93.6955C76.2584 94.5376 82.4913 92.9306 86.7364 88.9068C90.0749 85.7423 92.3731 80.7747 92.2668 76.1115C93.3477 63.6964 81.4659 53.3952 68.3858 57.964C60.181 28.0813 7.66455 31.7943 7.66455 65.545C7.66455 66.1794 7.71621 68.3175 7.88143 68.8567ZM71.6194 59.188C85.1936 56.5219 95.4023 71.6931 87.6223 83.285C81.3321 92.6571 67.7254 92.3159 61.6497 83.3024C58.5515 78.7046 57.89 72.698 59.9648 67.9998C61.9695 63.4581 66.2175 60.2462 71.6194 59.188ZM66.4768 58.7412C62.5296 60.6095 59.359 64.0092 57.7436 67.5356H9.78891C7.41184 34.1208 58.9681 30.3807 66.4768 58.7412Z" fill="black"/>
<path d="M72.1418 80.6777C73.239 80.622 72.8688 79.5127 82.2224 69.9463C82.6191 69.5409 82.6117 68.8894 82.2064 68.4935C81.8011 68.0975 81.1509 68.1042 80.7536 68.5095C77.553 71.783 74.5518 75.0873 72.0174 78.1266L67.7907 73.9047C67.3907 73.5034 66.7393 73.5034 66.3379 73.9047C65.9373 74.306 65.9373 74.9575 66.3393 75.3575C71.5219 80.3908 71.3775 80.7365 72.1418 80.6777Z" fill="black"/>
</svg>
