<svg width="100" height="100" viewBox="0 0 100 100" fill="none" xmlns="http://www.w3.org/2000/svg">
<path d="M96.7308 50C96.9231 50 96.9231 49.8077 97.1154 49.8077C97.5 49.4231 97.6923 48.6539 97.1154 48.2693C93.2692 44.0385 89.4231 40 85.7692 36.1539C85.9615 35.9616 86.1538 35.7692 86.1538 35.5769C86.3462 34.8077 85.9615 33.8462 85.1923 33.6539C77.3077 30.9616 69.6154 28.2692 61.7308 25.7692C62.6923 24.4231 63.4615 23.2692 64.4231 21.9231C64.6154 21.7308 64.6154 21.3462 64.6154 20.9616C64.6154 20.1923 63.8462 19.4231 63.0769 19.4231H57.6923C57.3077 11.7308 56.9231 7.69233 56.9231 7.50002C56.9231 7.30771 56.7308 6.9231 56.3462 7.1154C54.2308 7.30771 52.1154 7.50002 50 7.69233C51.9231 7.88463 53.8462 8.07694 55.7692 8.26925C55.3846 13.6539 55.1923 18.0769 55 20.9616C55 21.7308 55.5769 22.3077 56.1539 22.3077C56.3462 22.3077 60 22.5 59.8077 22.5C58.2692 24.6154 56.5385 26.7308 55 28.6539L50 35.1923L45 28.4616L40.1923 22.3077C40.3846 22.3077 44.0385 22.1154 43.8462 22.1154C44.6154 22.1154 45 21.5385 45 20.7693C44.8077 16.5385 44.6154 12.3077 44.2308 8.07694C46.1538 7.88463 48.0769 7.69233 50 7.50002C47.8846 7.30771 45.7692 7.1154 43.6538 6.9231C43.4615 6.9231 43.0769 7.1154 43.0769 7.30771C43.0769 7.50002 42.6923 11.7308 42.3077 19.2308H37.1154C36.7308 19.2308 36.5385 19.2308 36.1538 19.4231C35.3846 20 35.1923 20.9616 35.7692 21.5385C36.1538 21.9231 38.6538 25.7693 38.4615 25.3846C30.5769 27.8846 22.6923 30.5769 15 33.2692C14.6154 33.4616 14.2308 33.6539 14.0385 34.2308C13.8462 34.8077 14.0385 35.5769 14.4231 35.9616C10.7692 39.8077 6.92308 43.8462 3.07692 48.0769C3.07692 48.0769 2.88462 48.2693 2.88462 48.4616C2.69231 49.0385 2.88462 49.6154 3.46154 50C7.11538 51.5385 10.7692 53.0769 14.2308 54.6154C14.0385 59.0385 14.0385 63.2693 13.8462 67.6923C13.6538 72.5 13.6538 77.1154 13.6538 81.9231C13.6538 82.6923 14.2308 83.4616 15 83.6539C20.7692 85.3846 26.5385 86.9231 32.3077 88.4616L49.6154 93.077H49.8077H50H50.1923H50.3846C56.1539 91.5385 61.9231 90 67.6923 88.4616C73.4615 86.9231 79.2308 85.3846 85 83.6539C85.7692 83.4616 86.3462 82.6923 86.3462 81.9231C86.1538 72.8846 85.9615 63.8462 85.7692 54.8077C89.4231 53.0769 92.8846 51.5385 96.7308 50ZM78.2692 53.8462C72.8846 55.7693 67.5 57.6923 62.3077 59.8077C59.2308 56.1539 56.1538 52.5 53.0769 48.8462L67.8846 43.0769L85 36.3462C85.1923 36.3462 85.1923 36.1539 85.1923 36.1539C88.2692 40.3846 91.1538 44.4231 94.0385 48.4616C88.8462 50.1923 83.6538 51.9231 78.2692 53.8462ZM42.1154 30.7692L48.4615 39.6154C49.2308 40.7693 50.7692 40.5769 51.5385 39.6154L57.8846 30.7692C58.8462 29.6154 59.6154 28.2693 60.5769 27.1154C67.1154 29.8077 73.6538 32.3077 80.1923 35L66.7308 39.8077L50 45.9616L33.4615 39.8077L20 35C26.5385 32.5 33.0769 29.8077 39.6154 27.1154L42.1154 30.7692ZM14.8077 36.3462L32.1154 43.2693L46.9231 49.0385C43.8462 52.6923 40.7692 56.3462 37.6923 60C32.3077 58.0769 27.1154 55.9616 21.7308 54.0385C16.3462 52.1154 11.1538 50.3846 5.76923 48.4616C8.65385 44.6154 11.5385 40.5769 14.6154 36.1539L14.8077 36.3462ZM17.3077 80.3846C17.3077 76.1539 17.1154 71.9231 17.1154 67.5C16.9231 63.4616 16.9231 59.4231 16.7308 55.5769C18.0769 56.1539 19.2308 56.5385 20.5769 57.1154C26.3462 59.4231 32.1154 61.5385 37.6923 63.8462C38.4615 64.2308 39.2308 63.8462 39.8077 63.2693C42.8846 59.6154 45.9615 55.7693 48.8462 52.1154C48.6538 57.8846 48.4615 63.8462 48.2692 69.6154L48.0769 80.3846V88.6539C43.0769 87.3077 38.0769 85.9616 33.0769 84.6154C27.8846 83.2693 22.5 81.7308 17.3077 80.3846ZM82.6923 80.3846C77.3077 81.7308 71.9231 83.2693 66.7308 84.6154C61.7308 85.9616 56.7308 87.3077 51.7308 88.6539C51.5385 71.5385 51.3462 62.8846 50.9615 52.1154C54.0385 55.7693 56.9231 59.6154 60 63.2693C60.5769 63.8462 61.3462 64.2308 62.1154 63.8462C67.8846 61.5385 73.6538 59.4231 79.2308 57.1154C80.5769 56.5385 81.7308 56.1539 83.0769 55.5769C83.0769 63.8462 82.8846 72.1154 82.6923 80.3846Z" fill="black"/>
</svg>
