<svg width="100" height="100" viewBox="0 0 100 100" fill="none" xmlns="http://www.w3.org/2000/svg">
<path d="M16.5762 94.084H42.8835C45.1351 96.1447 48.0916 97.2632 51.1434 97.209C57.8123 97.0078 87.7828 100.569 92.7157 93.3044C100.045 88.5026 92.5877 44.7125 93.586 37.5791C93.9541 29.2375 69.4474 34.5773 65.336 33.1465C63.9784 26.6272 68.236 11.6916 56.4445 14.3965C55.4728 -1.63289 35.2176 -1.34431 33.8365 14.3965C30.624 14.4137 25.2905 13.5728 25.0007 18.1398L23.5813 44.084C20.0816 45.0243 5.86032 41.3243 5.90677 47.8263C7.29024 58.9812 -4.05218 94.5275 16.5762 94.084ZM88.9036 36.2715C89.3034 36.2714 89.688 36.4246 89.9782 36.6995C90.2684 36.9744 90.4422 37.3501 90.4638 37.7493C88.9168 43.9284 94.9575 69.6857 92.5483 84.1423C91.5029 83.2492 90.3875 82.4414 89.2128 81.7268C89.0009 81.6098 88.7568 81.5648 88.5171 81.5987C88.2775 81.6326 88.0554 81.7434 87.8842 81.9146C87.7131 82.0857 87.6022 82.3079 87.5684 82.5475C87.5345 82.7871 87.5794 83.0313 87.6964 83.2432C88.8147 84.8041 90.2458 86.1151 91.8984 87.0928C91.7433 87.6222 91.5746 88.1328 91.3846 88.6126C89.2956 86.9706 87.2272 85.3073 85.2642 83.5161C84.84 83.1817 84.3463 82.5904 83.7642 82.6585C80.4451 83.4221 89.1483 90.0372 90.3737 90.5868C90.135 90.9712 89.8675 91.3369 89.5735 91.6807C88.3187 90.4652 86.9084 89.4214 85.3794 88.5765C85.2709 88.5468 85.1561 88.5503 85.0497 88.5867C84.9432 88.623 84.8502 88.6904 84.7825 88.7802C84.4682 89.2392 84.9093 89.7618 85.1716 90.1436C86.0471 91.1489 86.8211 92.2863 87.7846 93.2053C86.3847 94.0359 84.7702 94.4336 83.1446 94.3483C80.3281 94.0115 40.2896 100.924 41.7821 84.1978L44.3188 37.7486C44.3405 37.3497 44.5143 36.9742 44.8043 36.6995C45.0944 36.4247 45.4787 36.2716 45.8782 36.2715L88.9036 36.2715ZM37.3679 11.5331C40.4331 0.59747 53.7604 3.48967 53.6751 14.3965H36.8439C36.9305 13.428 37.1059 12.4695 37.3679 11.5331ZM26.904 40.5577C27.819 39.599 28.8259 38.7325 29.9102 37.9705C29.9955 37.8808 30.0493 37.7659 30.0637 37.643C30.078 37.5202 30.0522 37.3959 29.9899 37.289C29.9277 37.1821 29.8324 37.0983 29.7185 37.0501C29.6045 37.0019 29.478 36.992 29.358 37.0219C28.4346 37.3758 27.622 37.969 27.0035 38.7405L28.1202 18.3211C28.1061 16.9223 31.3346 17.7195 32.0768 17.5215H33.6883C33.712 18.5656 33.8031 19.607 33.9611 20.6393C33.2882 20.8643 32.305 21.3676 32.4974 22.21C32.5514 22.3939 32.6627 22.5557 32.8152 22.6718C32.9677 22.7879 33.1533 22.8522 33.3449 22.8553C34.3632 22.9264 35.3361 22.5333 36.3539 22.5033C37.5325 22.6112 38.7135 22.3248 39.7118 21.6892C40.8213 19.9777 37.6955 19.6103 36.5961 19.9559C36.6389 19.145 36.656 18.3328 36.6754 17.5215H53.646C53.5312 18.5351 53.6515 19.5615 53.9975 20.5211C52.917 20.5389 50.9618 21.2169 52.1732 22.2792C53.5985 22.6963 55.0892 22.8432 56.5685 22.7122C59.3982 22.928 59.5218 20.0419 56.5867 20.327C56.8137 19.4481 56.266 18.4737 56.41 17.5215H57.0768C57.8307 17.7482 61.4013 16.8855 61.3912 18.3102L62.2063 33.1465C51.9958 34.4489 39.1967 27.7392 40.8431 44.084H33.4457C34.1357 43.5753 34.7863 43.0151 35.3919 42.4083C35.5351 42.2632 35.6207 42.0711 35.6328 41.8677C35.6449 41.6642 35.5827 41.4633 35.4577 41.3023C35.3324 41.1422 35.154 41.0323 34.9546 40.9925C34.7553 40.9527 34.5483 40.9856 34.3712 41.0853C32.8011 41.8292 31.3746 42.8443 30.1573 44.084H27.8382C29.9555 42.5333 31.9344 40.8018 33.7525 38.9092C33.8653 38.7912 33.9325 38.637 33.9421 38.4741C33.9518 38.3112 33.9034 38.1501 33.8054 38.0196C33.7055 37.8897 33.5619 37.8004 33.4012 37.7684C33.2405 37.7363 33.0736 37.7636 32.9315 37.8451C30.7625 39.4879 28.7013 41.2685 26.7608 43.1759L26.904 40.5577ZM7.21414 81.0758C11.5978 39.7946 -2.43028 47.8115 40.6726 47.209C41.0658 52.5504 36.6407 86.8746 40.3253 90.959C32.0361 89.579 6.10272 96.2693 7.21414 81.0758Z" fill="black"/>
<path d="M51.7545 49.2724C52.3623 49.5682 53.0476 49.2524 53.6854 49.2126C55.0712 74.3988 81.3344 71.6794 83.513 48.5503C83.8699 48.5736 84.2216 48.4554 84.4921 48.2214C84.7625 47.9873 84.93 47.6563 84.9583 47.2997C84.9865 46.9432 84.8733 46.5898 84.643 46.3161C84.4128 46.0424 84.0841 45.8704 83.7279 45.8372C82.7922 45.77 81.8518 45.852 80.9418 46.08C80.7888 46.1243 80.6478 46.2027 80.5294 46.3093C80.4111 46.4159 80.3184 46.5479 80.2584 46.6955C80.1983 46.843 80.1725 47.0023 80.1828 47.1612C80.1932 47.3202 80.2394 47.4747 80.318 47.6133C80.5067 47.8293 80.7371 48.0049 80.9954 48.1296C81.2537 48.2543 81.5346 48.3255 81.8211 48.3388C81.3164 51.8137 79.7569 55.0497 77.3535 57.6096C66.9162 70.2105 57.5881 62.3913 54.999 49.0203C55.4723 48.9927 55.9365 48.8788 56.3689 48.6844C56.5676 48.5615 56.7214 48.3777 56.8072 48.1603C56.8931 47.943 56.9065 47.7037 56.8454 47.4781C56.7843 47.2525 56.6519 47.0527 56.4681 46.9084C56.2843 46.7642 56.0588 46.6831 55.8251 46.6773C54.5393 46.8332 53.2634 47.0628 52.0038 47.3647C51.8083 47.4222 51.6337 47.5354 51.5013 47.6903C51.3689 47.8452 51.2843 48.0353 51.2579 48.2373C51.2315 48.4394 51.2643 48.6448 51.3525 48.8286C51.4407 49.0123 51.5803 49.1665 51.7545 49.2724Z" fill="black"/>
<path d="M15.3523 57.2761C15.6871 57.379 16.034 57.4375 16.3841 57.4501C15.4088 59.3967 17.023 62.5439 17.9744 64.1294C19.4618 66.9841 22.5833 68.0046 25.5979 68.2079C31.8682 69.8117 36.6506 63.5912 35.8409 57.7076C36.453 57.4866 37.3626 57.082 37.255 56.2924C37.2327 56.1151 37.1586 55.9483 37.0419 55.8129C36.9253 55.6775 36.7713 55.5795 36.5992 55.5312C35.3981 55.3106 34.1625 55.365 32.9854 55.6904C29.6798 56.1579 31.4469 57.7721 33.7017 57.7848C33.5366 59.9372 32.9809 62.0415 32.0616 63.9947C31.4431 64.9474 30.5439 65.6844 29.4884 66.1038C28.4328 66.5231 27.2731 66.6042 26.1694 66.3358C23.9937 66.1656 21.9625 65.1797 20.4827 63.5757C19.0029 61.9716 18.1836 59.8678 18.1889 57.6854C18.7665 57.7661 19.3552 57.7008 19.9011 57.4955C20.0881 57.4379 20.2545 57.3279 20.3807 57.1784C20.5068 57.0289 20.5874 56.8464 20.6127 56.6524C20.638 56.4585 20.6071 56.2614 20.5236 56.0845C20.4401 55.9076 20.3075 55.7585 20.1416 55.6549C19.3614 55.2784 18.5047 55.0872 17.6384 55.096C16.7721 55.1048 15.9196 55.3134 15.1471 55.7056C15.0054 55.7939 14.8922 55.9212 14.8208 56.0721C14.7494 56.223 14.723 56.3913 14.7446 56.5568C14.7663 56.7224 14.8351 56.8782 14.9428 57.0057C15.0505 57.1333 15.1927 57.2271 15.3523 57.2761Z" fill="black"/>
<path d="M12.8868 84.6042C13.9387 85.4019 15.954 86.4042 17.0825 85.2638C18.042 84.0435 16.5704 83.2464 15.4914 83.0835C12.0051 81.8912 11.7285 76.9866 12.5571 73.9549C12.5974 73.8053 12.5877 73.6465 12.5293 73.503C12.4709 73.3594 12.3671 73.2389 12.2338 73.1598C10.6619 72.3561 10.2467 75.3791 10.0746 76.317C9.74567 77.8235 9.8337 79.3912 10.3292 80.8514C10.8247 82.3116 11.7089 83.609 12.8868 84.6042Z" fill="black"/>
<path d="M19.7293 85.6486C19.9851 85.8945 20.327 86.0302 20.6818 86.0267C21.0366 86.0232 21.3758 85.8807 21.6267 85.6298C21.8775 85.3789 22.02 85.0397 22.0235 84.6849C22.027 84.3302 21.8913 83.9882 21.6454 83.7324C21.3896 83.4865 21.0476 83.3508 20.6928 83.3543C20.3381 83.3578 19.9988 83.5003 19.748 83.7512C19.4971 84.0021 19.3546 84.3413 19.3511 84.6961C19.3476 85.0509 19.4834 85.3928 19.7293 85.6486Z" fill="black"/>
<path d="M91.0764 83.0018L91.1569 83.0643C91.105 83.015 91.0291 82.9631 91.0764 83.0018Z" fill="black"/>
<path d="M45.9034 84.4989C46.3209 85.8398 47.2323 86.9721 48.453 87.6665C49.1602 88.0364 49.9424 88.2404 50.7402 88.2632C51.538 88.286 52.3305 88.1269 53.0577 87.798C53.2109 87.7066 53.3378 87.5769 53.4259 87.4217C53.5141 87.2665 53.5604 87.0911 53.5604 86.9126C53.5604 86.7342 53.5141 86.5588 53.4259 86.4036C53.3378 86.2484 53.2109 86.1187 53.0577 86.0273C51.9522 85.4819 50.7073 85.6978 49.5708 85.2571C47.4074 84.3205 47.3212 81.5482 47.288 79.5163C47.2688 78.0773 47.3417 76.6386 47.5061 75.2089C47.5718 74.6292 46.6376 74.5218 46.499 75.0726C45.8552 78.1251 44.9993 81.4216 45.9034 84.4989Z" fill="black"/>
<path d="M56.129 88.8705C56.436 89.1696 56.8484 89.3358 57.277 89.333C57.7056 89.3302 58.1158 89.1587 58.4189 88.8557C58.7219 88.5526 58.8934 88.1424 58.8962 87.7138C58.899 87.2852 58.7328 86.8728 58.4337 86.5658C58.1268 86.2667 57.7143 86.1005 57.2857 86.1033C56.8572 86.1061 56.4469 86.2776 56.1439 86.5806C55.8408 86.8837 55.6693 87.2939 55.6665 87.7225C55.6638 88.1511 55.8299 88.5635 56.129 88.8705Z" fill="black"/>
</svg>
