<svg width="7" height="14" viewBox="0 0 7 14" xmlns="http://www.w3.org/2000/svg">
<path d="M6.14382 4.88032L1.66462 0.290764C1.48178 0.104531 1.23445 0 0.976639 0C0.718831 0 0.471497 0.104531 0.288658 0.290764C0.197192 0.383718 0.124594 0.494309 0.0750506 0.616156C0.0255075 0.738003 0 0.868696 0 1.0007C0 1.13269 0.0255075 1.26339 0.0750506 1.38524C0.124594 1.50708 0.197192 1.61767 0.288658 1.71063L4.77761 6.29018C4.86908 6.38314 4.94168 6.49373 4.99122 6.61557C5.04076 6.73742 5.06627 6.86812 5.06627 7.00011C5.06627 7.13211 5.04076 7.26281 4.99122 7.38465C4.94168 7.5065 4.86908 7.61709 4.77761 7.71005L0.288658 12.2896C0.1049 12.4766 0.00115143 12.7307 0.000236386 12.996C-0.000678661 13.2613 0.101315 13.5162 0.283779 13.7045C0.466243 13.8928 0.714231 13.9991 0.973189 14C1.23215 14.0009 1.48086 13.8964 1.66462 13.7095L6.14382 9.11991C6.69206 8.55746 7 7.79504 7 7.00011C7 6.20519 6.69206 5.44277 6.14382 4.88032Z" fill="#151515"/>
</svg>
