<svg width="24" height="24" viewBox="0 0 24 24" fill="none" xmlns="http://www.w3.org/2000/svg">
<g id="Cross">
<path id="cross" fill-rule="evenodd" clip-rule="evenodd" d="M4.29289 4.29292C4.68342 3.9024 5.31658 3.9024 5.70711 4.29292L12 10.5858L18.2929 4.29292C18.6834 3.9024 19.3166 3.9024 19.7071 4.29292C20.0976 4.68345 20.0976 5.31661 19.7071 5.70714L13.4142 12L19.7071 18.2929C20.0976 18.6834 20.0976 19.3166 19.7071 19.7071C19.3166 20.0977 18.6834 20.0977 18.2929 19.7071L12 13.4142L5.70711 19.7071C5.31658 20.0977 4.68342 20.0977 4.29289 19.7071C3.90237 19.3166 3.90237 18.6834 4.29289 18.2929L10.5858 12L4.29289 5.70714C3.90237 5.31661 3.90237 4.68345 4.29289 4.29292Z" fill="#7A7A7A"/>
</g>
</svg>
