<svg width="15" height="16" viewBox="0 0 15 16" fill="none" xmlns="http://www.w3.org/2000/svg">
<g id="Icon">
<path id="Vector" d="M13.125 7.6875V9.875H11.25C10.7527 9.875 10.2758 10.0725 9.92417 10.4242C9.57254 10.7758 9.375 11.2527 9.375 11.75V13.625H2.8125C2.56386 13.625 2.3254 13.5262 2.14959 13.3504C1.97377 13.1746 1.875 12.9361 1.875 12.6875V3.3125C1.875 3.06386 1.97377 2.8254 2.14959 2.64959C2.3254 2.47377 2.56386 2.375 2.8125 2.375H8.4375C8.68614 2.375 8.9246 2.27623 9.10041 2.10041C9.27623 1.9246 9.375 1.68614 9.375 1.4375C9.375 1.18886 9.27623 0.950403 9.10041 0.774587C8.9246 0.598772 8.68614 0.5 8.4375 0.5H2.8125C2.06658 0.5 1.35121 0.796316 0.823762 1.32376C0.296316 1.85121 0 2.56658 0 3.3125L0 12.6875C0 13.4334 0.296316 14.1488 0.823762 14.6762C1.35121 15.2037 2.06658 15.5 2.8125 15.5H10.3025C11.0481 15.5 11.7632 15.2039 12.2906 14.6769L14.1762 12.7913C14.7035 12.264 14.9998 11.5488 15 10.8031V7.6875C15 7.43886 14.9012 7.2004 14.7254 7.02459C14.5496 6.84877 14.3111 6.75 14.0625 6.75C13.8139 6.75 13.5754 6.84877 13.3996 7.02459C13.2238 7.2004 13.125 7.43886 13.125 7.6875Z" fill="#D66700"/>
<path id="Vector_2" d="M11.1206 1.62062L3.30813 9.43312C3.19091 9.55031 3.12504 9.70925 3.125 9.875V11.75C3.125 11.9158 3.19085 12.0747 3.30806 12.1919C3.42527 12.3091 3.58424 12.375 3.75 12.375H5.625C5.79075 12.375 5.94969 12.3091 6.06687 12.1919L13.7738 4.485C14.0345 4.23352 14.2262 3.91919 14.3304 3.57221C14.4346 3.22524 14.4478 2.85729 14.3687 2.50375C14.2803 2.17494 14.1072 1.87505 13.8667 1.63396C13.6262 1.39288 13.3268 1.219 12.9982 1.12967C12.6696 1.04033 12.3234 1.03865 11.994 1.12479C11.6645 1.21093 11.3634 1.38188 11.1206 1.62062Z" fill="#D66700"/>
</g>
</svg>
