<svg width="10" height="10" viewBox="0 0 10 10" fill="none" xmlns="http://www.w3.org/2000/svg">
<path fill-rule="evenodd" clip-rule="evenodd" d="M6.65824 0.897438H3.34181C1.99399 0.897438 0.897461 1.99397 0.897461 3.34179V6.65821C0.897461 8.00604 1.99399 9.10257 3.34181 9.10257H6.65824C8.00606 9.10257 9.10259 8.00604 9.10259 6.65821V3.34179C9.10257 1.99397 8.00604 0.897438 6.65824 0.897438ZM8.27728 6.65822C8.27728 7.55232 7.55246 8.27714 6.65836 8.27714H3.34194C2.44784 8.27714 1.72302 7.55232 1.72302 6.65822V3.3418C1.72302 2.44769 2.44784 1.72288 3.34194 1.72288H6.65836C7.55246 1.72288 8.27728 2.44769 8.27728 3.3418V6.65822ZM2.87784 5.00006C2.87784 3.82993 3.82983 2.87794 4.99998 2.87794C6.17013 2.87794 7.12212 3.82991 7.12212 5.00006C7.12212 6.17021 6.17013 7.1222 4.99998 7.1222C3.82983 7.1222 2.87784 6.1702 2.87784 5.00006ZM5.00011 6.29679C4.28395 6.29679 3.7034 5.71624 3.7034 5.00008C3.7034 4.28393 4.28397 3.70338 5.00011 3.70338C5.71626 3.70338 6.29681 4.28393 6.29681 5.00008C6.29681 5.71622 5.71625 6.29679 5.00011 6.29679ZM7.12615 3.40229C7.40699 3.40229 7.63466 3.17462 7.63466 2.89378C7.63466 2.61294 7.40699 2.38527 7.12615 2.38527C6.84531 2.38527 6.61764 2.61294 6.61764 2.89378C6.61764 3.17462 6.84531 3.40229 7.12615 3.40229Z" fill="white"/>
</svg>
