<svg width="10" height="10" viewBox="0 0 10 10" fill="none" xmlns="http://www.w3.org/2000/svg">
<path fill-rule="evenodd" clip-rule="evenodd" d="M2.732 3.62194H1.03024V9.10258H2.732V3.62194ZM2.87125 1.88585C2.87125 1.34096 2.42841 0.897438 1.88435 0.897438C1.33713 0.897438 0.897461 1.34096 0.897461 1.88585C0.897461 2.43075 1.33713 2.87427 1.88435 2.87427C2.42841 2.87427 2.87125 2.43075 2.87125 1.88585ZM5.42997 3.62193H3.80413V9.10257H5.50272V6.39076C5.50272 5.67796 5.63557 4.98417 6.52125 4.98417C7.39427 4.98417 7.40376 5.80151 7.40376 6.43828V9.10257H9.10235V6.0993C9.10235 4.62302 8.78287 3.48887 7.06214 3.48887C6.2334 3.48887 5.67986 3.94189 5.45211 4.37274H5.42997V3.62193Z" fill="white"/>
</svg>
