<svg width="48" height="48" viewBox="0 0 48 48" fill="none" xmlns="http://www.w3.org/2000/svg">
<path d="M4 23.7407C4.99258 40.8667 14.5462 42 22.6109 42C43.0828 42 44.9439 23.7407 43.7032 14.2963C42.4625 11.1481 37.4996 8 22.6109 8C5.24072 8 4 14.2963 4 17.2346V23.7407Z" stroke="#7A7A7A" stroke-width="2" stroke-linecap="round"/>
<path d="M4 24C4 24 8.33751 24.2675 11 25C13.8676 25.789 18 28 18 28C18 28 14.0579 32.7991 15 36C16.0403 39.5343 19.3158 41 23 41C26.6842 41 29.7894 39.4796 31 36C32.0582 32.9585 29 28 29 28C29 28 33.1324 25.789 36 25C38.6625 24.2675 43 24 43 24" stroke="#7A7A7A" stroke-width="2" stroke-linecap="round" stroke-linejoin="round"/>
</svg>
