<?xml version="1.0" encoding="UTF-8"?>
<svg id="Layer_2" data-name="Layer 2" xmlns="http://www.w3.org/2000/svg" viewBox="0 0 40.94 30.33">
  <path  d="m0,0c7.63,0,15.27-.01,22.9,0,1.37,0,2.43.99,2.45,2.41.07,7.82.01,15.64.04,23.46,0,.32-.15.33-.39.33-3.02,0-6.05,0-9.07-.01-.39,0-.51.09-.6.5-.23,1.05-.87,1.89-1.7,2.56-.95.75-2.05,1.1-3.26,1.05-.98-.05-1.89-.35-2.68-.97-.98-.77-1.63-1.73-1.85-2.96-.03-.18-.14-.16-.26-.16-1.05,0-2.11-.04-3.16.01-1.06.05-2.23-.98-2.35-1.85-.01-.08-.01-.16-.08-.22v-9.44c2.37,0,4.74,0,7.12.02.18,0,.26-.03.25-.24-.02-.39-.02-.77,0-1.16,0-.2-.07-.24-.25-.24-2.37,0-4.74.01-7.12.02v-1.68c3.19,0,6.38,0,9.58.02.18,0,.27-.03.26-.24-.02-.39-.02-.77,0-1.16,0-.21-.08-.24-.26-.24-3.19,0-6.39,0-9.58.01v-1.68c1.88,0,3.75.02,5.63.02,2.08,0,4.16,0,6.23.01.37,0,.46-.1.43-.44-.03-.29-.02-.59,0-.88.02-.24-.05-.32-.3-.32-4,.01-7.99,0-11.99.01v-1.68c.84,0,1.68.02,2.51.02,3.94,0,7.88,0,11.82,0,.31,0,.42-.08.4-.39-.02-.32-.02-.64,0-.96.01-.22-.05-.29-.28-.29-4.82,0-9.64,0-14.46.01V0Zm7.36,25.4c-.07,1.76,1.55,3.36,3.23,3.3,1.87-.07,3.3-1.38,3.31-3.32,0-1.71-1.31-3.34-3.62-3.23-1.42.07-3.04,1.51-2.92,3.25Z"/>
  <path  d="m40.94,24.24c-.26.34-.42.73-.68,1.07-.49.63-1.14.86-1.88.92-.26.02-.57-.08-.79.03-.19.09-.11.44-.2.66-.43,1.03-1.02,1.91-2,2.55-.99.64-2.02.95-3.17.83-1.15-.11-2.14-.6-2.95-1.44-.66-.68-1.11-1.46-1.32-2.38-.07-.32-.27-.27-.46-.24-.37.05-.48-.06-.48-.46.02-6.54.01-13.08,0-19.62,0-.34.06-.44.43-.44,1.65.02,3.3.02,4.95,0,1.17,0,2.14.43,2.98,1.22.88.81,1.53,1.79,2.22,2.75.64.89,1.34,1.74,1.98,2.63.61.86,1.04,1.81,1.28,2.84.01.05.02.1.08.11v8.96Zm-5.48-8.68c1.16,0,2.32-.01,3.47,0,.28,0,.32-.09.25-.32-.21-.73-.53-1.4-.98-2.01-1.08-1.47-2.16-2.94-3.28-4.38-.46-.59-1-1.16-1.77-1.39-.55-.17-1.13-.07-1.69-.11-.31-.02-.36.09-.36.38.01,2.26,0,4.53,0,6.79,0,.7.32,1.03,1.04,1.03,1.11,0,2.21,0,3.32,0Zm-2.76,13.08c1.77.18,3.24-1.59,3.3-3.06.07-1.79-1.26-3.54-3.5-3.41-1.72.09-2.99,1.38-3.05,3.2-.06,1.68,1.44,3.42,3.26,3.28Z"/>
</svg>