<svg width="24" height="24" viewBox="0 0 24 24" fill="none" xmlns="http://www.w3.org/2000/svg">
<g id="truck-fast">
<path id="Vector" d="M2.5 15.5C2.22 15.5 2 15.72 2 16V17C2 18.66 3.34 20 5 20C5 18.35 6.35 17 8 17C9.65 17 11 18.35 11 20H13C13 18.35 14.35 17 16 17C17.65 17 19 18.35 19 20C20.66 20 22 18.66 22 17V15C22 14.45 21.55 14 21 14H11.5C10.12 14 9 12.88 9 11.5V6C9 5.45 8.55 5 8 5H7.16C6.44 5 5.78 5.39 5.42 6.01L4.78 7.13C4.69 7.29 4.81 7.5 5 7.5C6.38 7.5 7.5 8.62 7.5 10V13C7.5 14.38 6.38 15.5 5 15.5H2.5Z" fill="#151515"/>
<path id="Vector_2" d="M16 22C14.8954 22 14 21.1046 14 20C14 18.8954 14.8954 18 16 18C17.1046 18 18 18.8954 18 20C18 21.1046 17.1046 22 16 22Z" fill="#151515"/>
<path id="Vector_3" d="M8 22C6.89543 22 6 21.1046 6 20C6 18.8954 6.89543 18 8 18C9.10457 18 10 18.8954 10 20C10 21.1046 9.10457 22 8 22Z" fill="#151515"/>
<path id="Vector_4" d="M2 12.53V14H5C5.55 14 6 13.55 6 13V10C6 9.45 5.55 9 5 9H3.71L2.26 11.54C2.09 11.84 2 12.18 2 12.53Z" fill="#151515"/>
<g id="Group">
<path id="Vector_5" d="M10.92 2H18.31C20.1 2 21.6 3.28 21.93 4.98H17.56C17.18 4.98 16.88 5.29 16.88 5.67C16.88 6.05 17.18 6.35 17.56 6.35H22V7.73H19.4C19.02 7.73 18.71 8.04 18.71 8.42C18.71 8.8 19.02 9.1 19.4 9.1H22V10.48H21.23C20.85 10.48 20.54 10.79 20.54 11.17C20.54 11.55 20.85 11.85 21.23 11.85H22V12.08C22 12.63 21.55 13.08 21 13.08H11.85C10.83 13.08 10 12.25 10 11.23V2.92C10 2.41 10.41 2 10.92 2Z" fill="#151515"/>
<path id="Vector_6" d="M21.93 4.98H22.08H23.06C23.44 4.98 23.75 5.29 23.75 5.67C23.75 6.05 23.44 6.35 23.06 6.35H22.15H22V5.69C22 5.45 21.97 5.21 21.93 4.98Z" fill="#151515"/>
<path id="Vector_7" d="M22.15 7.73H23.06C23.44 7.73 23.75 8.04 23.75 8.42C23.75 8.8 23.44 9.1 23.06 9.1H22.15H22V7.73H22.15Z" fill="#151515"/>
<path id="Vector_8" d="M22.15 10.48H23.06C23.44 10.48 23.75 10.79 23.75 11.17C23.75 11.55 23.44 11.85 23.06 11.85H22.15H22V10.48H22.15Z" fill="#151515"/>
</g>
</g>
</svg>
