<svg width="10" height="8" viewBox="0 0 10 8" fill="none" xmlns="http://www.w3.org/2000/svg">
<path fill-rule="evenodd" clip-rule="evenodd" d="M9.10259 1.45577C8.80089 1.58959 8.47603 1.68007 8.13572 1.72103C8.48327 1.51244 8.75021 1.18289 8.87572 0.790006C8.55037 0.982877 8.19027 1.12289 7.80651 1.19813C7.49951 0.870964 7.06217 0.666664 6.57801 0.666664C5.64831 0.666664 4.89431 1.42005 4.89431 2.34964C4.89431 2.48203 4.90976 2.61014 4.93824 2.73348C3.53934 2.66347 2.29925 1.99295 1.46899 0.974781C1.3237 1.22337 1.24115 1.51244 1.24115 1.82103C1.24115 2.40488 1.5385 2.92016 1.98984 3.22161C1.71373 3.21304 1.45403 3.13732 1.22764 3.01112C1.22764 3.01826 1.22764 3.0254 1.22764 3.03255C1.22764 3.84784 1.80737 4.52789 2.57778 4.68266C2.43634 4.72124 2.28815 4.74172 2.13417 4.74172C2.02604 4.74172 1.92033 4.73124 1.81751 4.71124C2.03183 5.37986 2.65357 5.86656 3.39018 5.88037C2.81383 6.33135 2.08783 6.60042 1.29908 6.60042C1.16343 6.60042 1.02924 6.5928 0.897461 6.57709C1.64228 7.05474 2.52709 7.33333 3.47804 7.33333C6.57415 7.33333 8.2675 4.76886 8.2675 2.54489C8.2675 2.47155 8.26557 2.39964 8.26267 2.32726C8.5914 2.0901 8.87716 1.79341 9.10259 1.45624V1.45577Z" fill="white"/>
</svg>
