<svg width="22" height="22" viewBox="0 0 22 22" fill="none" xmlns="http://www.w3.org/2000/svg">
<g id="Profile">
<g id="Group">
<path id="Vector" fill-rule="evenodd" clip-rule="evenodd" d="M10.9863 14.0671C7.44065 14.0671 4.41382 14.6034 4.41382 16.7502C4.41382 18.8971 7.4214 19.4526 10.9863 19.4526C14.5311 19.4526 17.5588 18.9154 17.5588 16.7695C17.5588 14.6236 14.5503 14.0671 10.9863 14.0671V14.0671Z" stroke="#151515" stroke-width="1.5" stroke-linecap="round" stroke-linejoin="round"/>
<path id="Vector_2" fill-rule="evenodd" clip-rule="evenodd" d="M10.9862 11.0055C11.8195 11.0055 12.634 10.7584 13.3268 10.2955C14.0197 9.83252 14.5597 9.17454 14.8785 8.40471C15.1974 7.63489 15.2808 6.7878 15.1183 5.97055C14.9557 5.15331 14.5545 4.40263 13.9653 3.81343C13.3761 3.22423 12.6254 2.82298 11.8081 2.66042C10.9909 2.49786 10.1438 2.58129 9.37397 2.90017C8.60415 3.21904 7.94617 3.75903 7.48324 4.45185C7.02031 5.14468 6.77322 5.95922 6.77322 6.79247C6.76932 7.90578 7.20779 8.97505 7.99218 9.76512C8.77657 10.5552 9.84266 11.0013 10.956 11.0055H10.9862Z" stroke="#151515" stroke-width="1.429" stroke-linecap="round" stroke-linejoin="round"/>
</g>
</g>
</svg>
