<svg xmlns="http://www.w3.org/2000/svg" id="Layer_2" data-name="Layer 2" viewBox="0 0 38.67 44.01"><path d="m.15,4.43s11.45-1.48,15.3-3.01c.44-.17.9-.33,1.29-.58C17.39.43,18.41.03,19.16,0c1.32-.05,2.17.52,3.38,1.11,2.78,1.33,14.42,3.44,16.08,3.44,0,2.39.04,7.6.04,10.02s-.03,4.73,0,7.09c.1,6.28-2.53,11.29-7.1,15.4-3.49,3.13-7.52,5.33-11.92,6.9-.19.07-.4.07-.59,0-5.16-1.84-9.82-4.51-13.61-8.52C2.54,32.37.67,28.77.14,24.54c-.1-.8-.14-1.61-.14-2.41m18.05,6.57c4.31-4.31,8.59-8.59,12.81-12.81l-2.8-2.83c-3.34,3.66-6.7,7.34-10.08,11.06l-6.38-5.66-2.23,2.51,8.7,7.73Z"></path></svg>