<svg xmlns="http://www.w3.org/2000/svg" id="Layer_2" data-name="Layer 2" viewBox="0 0 42.91 42.02"><path d="m42.91,37.28c-.14.78-.24,1.52-.4,2.24-.31,1.46-1.55,2.46-3.05,2.5-.13,0-.26,0-.4,0-11.73,0-23.47,0-35.2,0-1.78,0-3.3-1.3-3.58-3.06-.09-.55-.19-1.1-.29-1.69.97-.3,1.91-.6,2.85-.89,3.79-1.16,7.58-2.33,11.37-3.48.38-.12.52-.29.54-.68.06-1.11.17-2.22.21-3.33,0-.25-.13-.61-.29-.8-1.31-1.48-2.45-3.07-3.17-4.93-.05-.12-.17-.3-.27-.39-1.74-1.64-1.87-3.58-1.11-5.7.11-.3.18-.62.19-.94.05-2.1-.02-4.2.13-6.29.21-2.92,1.3-5.44,3.84-7.16,1.65-1.11,3.5-1.69,5.43-2.06C22.38.12,25.07,0,27.8,0c.43,1.27.87,2.53,1.27,3.8.17.56.46.88,1.02,1.15.51.25.97.75,1.27,1.25.74,1.2,1.03,2.58,1.1,3.97.1,2.01.08,4.03.12,6.04,0,.23.09.6.17.82.8,2.15.66,4.11-1.11,5.77-.09.08-.19.24-.24.34-.72,1.88-1.87,3.48-3.19,4.97-.16.18-.29.52-.28.76.04,1.11.15,2.22.21,3.34.02.32.22.59.53.68,4.57,1.39,9.13,2.79,13.69,4.19.17.05.34.12.55.19Z"></path><path d="m32.08,4.39c1.81-.08,3.62-.17,5.44-.23.12,0,.33.19.38.33.39,1.12.77,2.25,1.13,3.38.09.27.18.44.51.49.61.1,1,.55,1.3,1.06.74,1.26.99,2.66,1.06,4.08.09,1.7.09,3.4.14,5.1,0,.22.05.46.16.65,1.01,1.71.78,3.56-.6,5-.21.22-.38.49-.5.77-.6,1.41-1.45,2.67-2.46,3.81-.23.26-.3.5-.27.84.12,1.36.21,2.73.31,4.1,0,.06-.01.12-.03.23-1.22-.31-2.42-.61-3.62-.92-1.65-.42-3.29-.85-4.95-1.25-.29-.07-.41-.17-.42-.48-.02-.61-.11-1.22-.12-1.83,0-.2.1-.45.23-.6,1.21-1.42,2.25-2.94,2.97-4.66.06-.13.14-.26.24-.37,1.93-2.05,2.21-4.41,1.34-6.99-.1-.29-.16-.61-.16-.91-.04-1.86,0-3.73-.11-5.59-.13-2.12-.63-4.14-2.02-5.84.01-.05.02-.11.04-.16Z"></path><path d="m4.21,33.94c.1-1.4.19-2.79.32-4.19.03-.37-.03-.64-.29-.93-1.07-1.2-1.95-2.53-2.55-4.04-.07-.19-.23-.36-.37-.51-1.44-1.45-1.66-3.25-.65-5.02.11-.19.13-.43.14-.66.09-2.06.08-4.13.27-6.18.36-3.83,2.56-6.18,6.19-7.25,1.02-.3,2.08-.49,3.16-.74,0,.14.02.19,0,.23-1.23,2.14-1.64,4.48-1.68,6.9-.03,1.5,0,3.01-.02,4.51,0,.27-.06.56-.15.81-.89,2.6-.61,4.97,1.34,7.03.11.12.2.26.26.41.7,1.68,1.71,3.16,2.9,4.52.22.26.32.5.28.84-.07.57-.08,1.15-.15,1.73-.02.14-.15.34-.27.37-2.85.74-5.7,1.46-8.54,2.18-.04.01-.09-.01-.19-.02Z"></path></svg>